<svg width="20" height="20" viewBox="0 0 20 20" fill="none" xmlns="http://www.w3.org/2000/svg">
<path fill-rule="evenodd" clip-rule="evenodd" d="M0 0V18.1819H9.09298C9.09298 18.1819 8.47117 14.6462 10.0508 12.7131C10.0508 11.9242 10 10.1011 10 10.1011H12V8.08085H10V6.06064H18C18 6.06064 18 9.01737 18 10.9119C19.3984 11.6794 20 12.7961 20 12.7961V4.04043H10V0H0ZM4 16.1617H2V14.1415H4V16.1617ZM4 12.1213H2V10.1011H4V12.1213ZM4 8.08085H2V6.06064H4V8.08085ZM4 4.04043H2V2.02021H4V4.04043ZM8 16.1617H6V14.1415H8V16.1617ZM8 12.1213H6V10.1011H8V12.1213ZM8 8.08085H6V6.06064H8V8.08085ZM8 4.04043H6V2.02021H8V4.04043Z" fill="#2E3132"/>
<path fill-rule="evenodd" clip-rule="evenodd" d="M14 10.1011C14 9.31212 14 8.08085 14 8.08085H16V10.1011C16 10.1011 14.781 10.1011 14 10.1011Z" fill="#2E3132"/>
<path d="M15.2 15.8663C16.2513 15.8663 17.0937 15.075 17.0937 14.0948C17.0937 13.1145 16.2513 12.3232 15.2 12.3232C14.1487 12.3232 13.3 13.1145 13.3 14.0948C13.3 15.075 14.1487 15.8663 15.2 15.8663ZM15.2 17.0474C13.9333 17.0474 11.4 17.6379 11.4 18.819V20H19V18.819C19 17.6379 16.4667 17.0474 15.2 17.0474Z" fill="#2E3132"/>
</svg>
