<svg width="20" height="20" viewBox="0 0 20 20" fill="none" xmlns="http://www.w3.org/2000/svg">
<path fill-rule="evenodd" clip-rule="evenodd" d="M0 0V17.522H9.09298C9.09298 17.522 8.47117 14.1146 10.0508 12.2517C10.0508 11.4914 10 9.73445 10 9.73445H12V7.78756H10V5.84067H18C18 5.84067 18 8.69009 18 10.5159C19.3984 11.2555 20 12.3317 20 12.3317V3.89378H10V0H0ZM4 15.5751H2V13.6282H4V15.5751ZM4 11.6813H2V9.73445H4V11.6813ZM4 7.78756H2V5.84067H4V7.78756ZM4 3.89378H2V1.94689H4V3.89378ZM8 15.5751H6V13.6282H8V15.5751ZM8 11.6813H6V9.73445H8V11.6813ZM8 7.78756H6V5.84067H8V7.78756ZM8 3.89378H6V1.94689H8V3.89378Z" fill="#2E3132"/>
<path fill-rule="evenodd" clip-rule="evenodd" d="M14 9.73445C14 8.97414 14 7.78756 14 7.78756H16V9.73445C16 9.73445 14.781 9.73445 14 9.73445Z" fill="#2E3132"/>
<path d="M18.0616 20L15.7587 17.7583L16.642 16.8984L18.9449 19.1402L18.0616 20ZM12.257 20L11.3737 19.1402L14.276 16.3149L13.561 15.6189L13.2665 15.9055L12.7302 15.3834V16.2228L12.4358 16.5094L11.1634 15.2708L11.4579 14.9842H12.3201L11.7944 14.4724L13.2876 13.0189C13.4278 12.8824 13.5785 12.7834 13.7397 12.722C13.901 12.6606 14.0657 12.6299 14.234 12.6299C14.4022 12.6299 14.567 12.6606 14.7282 12.722C14.8894 12.7834 15.0402 12.8824 15.1804 13.0189L14.2129 13.9606L14.7387 14.4724L14.4443 14.759L15.1593 15.4551L16.1057 14.5338C16.0777 14.4588 16.0549 14.3803 16.0374 14.2984C16.0198 14.2165 16.0111 14.1346 16.0111 14.0527C16.0111 13.6501 16.153 13.3106 16.437 13.0342C16.7209 12.7578 17.0696 12.6196 17.4833 12.6196C17.5884 12.6196 17.6883 12.6299 17.7829 12.6503C17.8776 12.6708 17.974 12.7015 18.0721 12.7425L17.0311 13.7559L17.7882 14.4929L18.8292 13.4795C18.8783 13.575 18.9116 13.6689 18.9291 13.761C18.9467 13.8531 18.9554 13.9504 18.9554 14.0527C18.9554 14.4553 18.8135 14.7949 18.5296 15.0712C18.2456 15.3476 17.8969 15.4858 17.4833 15.4858C17.3991 15.4858 17.315 15.479 17.2309 15.4653C17.1468 15.4517 17.0661 15.4278 16.989 15.3937L12.257 20Z" fill="#2E3132"/>
</svg>
